HIERARCHY
ROOT Hips
{
  OFFSET 0 0.240689 0
  CHANNELS 6 Xposition Yposition Zposition Zrotation Xrotation Yrotation
  JOINT Bip01_Spine0
  {
    OFFSET 0 -24.7459 49.7988
    CHANNELS 6 Xposition Yposition Zposition Zrotation Xrotation Yrotation
    JOINT Bip01_Pelvis
    {
      OFFSET 0 0 0
      CHANNELS 6 Xposition Yposition Zposition Zrotation Xrotation Yrotation
      JOINT Bip01_Spine0_Tail
      {
        OFFSET -6.47486 -3.86022 0
        CHANNELS 6 Xposition Yposition Zposition Zrotation Xrotation Yrotation
        JOINT Bip01_Spine0_Tail1
        {
          OFFSET 10.3837 -0.00825882 0
          CHANNELS 6 Xposition Yposition Zposition Zrotation Xrotation Yrotation
          JOINT Bip01_Spine0_Tail2
          {
            OFFSET 10.3837 -0.00826263 0
            CHANNELS 6 Xposition Yposition Zposition Zrotation Xrotation Yrotation
            JOINT Bip01_Spine0_Tail3
            {
              OFFSET 10.3837 -0.00825882 0
              CHANNELS 6 Xposition Yposition Zposition Zrotation Xrotation Yrotation
              JOINT Bip01_Spine0_Tail4
              {
                OFFSET 10.3837 -0.00826263 0
                CHANNELS 6 Xposition Yposition Zposition Zrotation Xrotation Yrotation
                End Site
                {
                  OFFSET 0 0 0
                }
              }
            }
          }
        }
      }
      JOINT Bip01_R_Thigh
      {
        OFFSET 0 -1.52588e-005 -8.75617
        CHANNELS 6 Xposition Yposition Zposition Zrotation Xrotation Yrotation
        JOINT Bip01_R_Calf
        {
          OFFSET 19.7638 0 0
          CHANNELS 6 Xposition Yposition Zposition Zrotation Xrotation Yrotation
          JOINT Bip01_R_Foot
          {
            OFFSET 18.6534 0 0
            CHANNELS 6 Xposition Yposition Zposition Zrotation Xrotation Yrotation
            JOINT Bip01_R_Toe0
            {
              OFFSET 5.09145 13.9567 0
              CHANNELS 6 Xposition Yposition Zposition Zrotation Xrotation Yrotation
              JOINT Bip01_R_Toe01
              {
                OFFSET 4.28803 0 0
                CHANNELS 6 Xposition Yposition Zposition Zrotation Xrotation Yrotation
                JOINT Bip01_R_Toe02
                {
                  OFFSET 3.85801 0 0
                  CHANNELS 6 Xposition Yposition Zposition Zrotation Xrotation Yrotation
                  End Site
                  {
                    OFFSET 0 0 0
                  }
                }
              }
            }
          }
        }
      }
      JOINT Bip01_L_Thigh
      {
        OFFSET 0 1.52588e-005 8.75617
        CHANNELS 6 Xposition Yposition Zposition Zrotation Xrotation Yrotation
        JOINT Bip01_L_Calf
        {
          OFFSET 19.7638 0 0
          CHANNELS 6 Xposition Yposition Zposition Zrotation Xrotation Yrotation
          JOINT Bip01_L_Foot
          {
            OFFSET 18.6534 0 0
            CHANNELS 6 Xposition Yposition Zposition Zrotation Xrotation Yrotation
            JOINT Bip01_L_Toe0
            {
              OFFSET 5.09144 13.9567 0
              CHANNELS 6 Xposition Yposition Zposition Zrotation Xrotation Yrotation
              JOINT Bip01_L_Toe01
              {
                OFFSET 4.28802 0 0
                CHANNELS 6 Xposition Yposition Zposition Zrotation Xrotation Yrotation
                JOINT Bip01_L_Toe02
                {
                  OFFSET 3.85801 0 0
                  CHANNELS 6 Xposition Yposition Zposition Zrotation Xrotation Yrotation
                  End Site
                  {
                    OFFSET 0 0 0
                  }
                }
              }
            }
          }
        }
      }
      JOINT Bip01_Spine
      {
        OFFSET 9.14835 -0.00640869 -1.1e-005
        CHANNELS 6 Xposition Yposition Zposition Zrotation Xrotation Yrotation
        JOINT Bip01_Spine1
        {
          OFFSET 8.04366 -0.00638199 0
          CHANNELS 6 Xposition Yposition Zposition Zrotation Xrotation Yrotation
          JOINT Bip01_Spine2
          {
            OFFSET 8.04367 -0.00639343 0
            CHANNELS 6 Xposition Yposition Zposition Zrotation Xrotation Yrotation
            JOINT Bip01_Spine3
            {
              OFFSET 8.04304 -0.00831222 0
              CHANNELS 6 Xposition Yposition Zposition Zrotation Xrotation Yrotation
              JOINT Bip01_Neck
              {
                OFFSET 10.6685 1.06813 0
                CHANNELS 6 Xposition Yposition Zposition Zrotation Xrotation Yrotation
                JOINT Bip01_R_Clavicle
                {
                  OFFSET -3.21661 -4.89635 -9.04802
                  CHANNELS 6 Xposition Yposition Zposition Zrotation Xrotation Yrotation
                  JOINT Bip01_R_UpperArm
                  {
                    OFFSET 19.0492 0 0
                    CHANNELS 6 Xposition Yposition Zposition Zrotation Xrotation Yrotation
                    JOINT Bip01_R_Forearm
                    {
                      OFFSET 10.3706 0 0
                      CHANNELS 6 Xposition Yposition Zposition Zrotation Xrotation Yrotation
                      JOINT Bip01_R_Hand
                      {
                        OFFSET 22.8632 0 0
                        CHANNELS 6 Xposition Yposition Zposition Zrotation Xrotation Yrotation
                        JOINT Bip01_R_Finger0
                        {
                          OFFSET 6.48259 0.103651 0.504496
                          CHANNELS 6 Xposition Yposition Zposition Zrotation Xrotation Yrotation
                          JOINT Bip01_R_Finger01
                          {
                            OFFSET 3.66847 0 0
                            CHANNELS 6 Xposition Yposition Zposition Zrotation Xrotation Yrotation
                            End Site
                            {
                              OFFSET 0 0 0
                            }
                          }
                        }
                      }
                    }
                  }
                }
                JOINT Bip01_L_Clavicle
                {
                  OFFSET -3.21661 -4.89641 9.04797
                  CHANNELS 6 Xposition Yposition Zposition Zrotation Xrotation Yrotation
                  JOINT Bip01_L_UpperArm
                  {
                    OFFSET 19.0492 0 0
                    CHANNELS 6 Xposition Yposition Zposition Zrotation Xrotation Yrotation
                    JOINT Bip01_L_Forearm
                    {
                      OFFSET 10.3706 0 0
                      CHANNELS 6 Xposition Yposition Zposition Zrotation Xrotation Yrotation
                      JOINT Bip01_L_Hand
                      {
                        OFFSET 22.8631 0 0
                        CHANNELS 6 Xposition Yposition Zposition Zrotation Xrotation Yrotation
                        JOINT Bip01_L_Finger0
                        {
                          OFFSET 6.48257 0.103655 -0.504492
                          CHANNELS 6 Xposition Yposition Zposition Zrotation Xrotation Yrotation
                          JOINT Bip01_L_Finger01
                          {
                            OFFSET 3.66844 0 0
                            CHANNELS 6 Xposition Yposition Zposition Zrotation Xrotation Yrotation
                            End Site
                            {
                              OFFSET 0 0 0
                            }
                          }
                        }
                      }
                    }
                  }
                }
                JOINT Bip01_Neck1
                {
                  OFFSET 7.52459 -0.00656509 0
                  CHANNELS 6 Xposition Yposition Zposition Zrotation Xrotation Yrotation
                  JOINT Bip01_Neck2
                  {
                    OFFSET 8.4783 -0.00588226 0
                    CHANNELS 6 Xposition Yposition Zposition Zrotation Xrotation Yrotation
                    JOINT Bip01_Head
                    {
                      OFFSET 8.41606 0 0
                      CHANNELS 6 Xposition Yposition Zposition Zrotation Xrotation Yrotation
                      JOINT EyesBlue
                      {
                        OFFSET 0 0 0
                        CHANNELS 6 Xposition Yposition Zposition Zrotation Xrotation Yrotation
                        JOINT EyesBlue_2
                        {
                          OFFSET 0 -0.500007 0
                          CHANNELS 6 Xposition Yposition Zposition Zrotation Xrotation Yrotation
                          End Site
                          {
                            OFFSET 0 0 0
                          }
                        }
                      }
                      JOINT Bip01_Head2_Eyeleds
                      {
                        OFFSET 6.52751 7.61746 2.2e-005
                        CHANNELS 6 Xposition Yposition Zposition Zrotation Xrotation Yrotation
                        End Site
                        {
                          OFFSET 0 0 0
                        }
                      }
                      JOINT Bip01_Head_Muzzle
                      {
                        OFFSET 2.88628 13.9448 3.88994
                        CHANNELS 6 Xposition Yposition Zposition Zrotation Xrotation Yrotation
                        End Site
                        {
                          OFFSET 0 0 0
                        }
                      }
                      JOINT Bip01_Head1_Jaw
                      {
                        OFFSET 0.271065 1.32405 0
                        CHANNELS 6 Xposition Yposition Zposition Zrotation Xrotation Yrotation
                        JOINT _Bip01_Head11_TungeControler
                        {
                          OFFSET 4.61616 5.82872 0
                          CHANNELS 6 Xposition Yposition Zposition Zrotation Xrotation Yrotation
                          JOINT _Bip01_Ponytail3_tunge
                          {
                            OFFSET 5.17785 2.98805 0
                            CHANNELS 6 Xposition Yposition Zposition Zrotation Xrotation Yrotation
                            JOINT Bip01_Ponytail31
                            {
                              OFFSET 5.57569 0 0
                              CHANNELS 6 Xposition Yposition Zposition Zrotation Xrotation Yrotation
                              JOINT Bip01_Ponytail32
                              {
                                OFFSET 2.93165 0 0
                                CHANNELS 6 Xposition Yposition Zposition Zrotation Xrotation Yrotation
                                JOINT Bip01_Ponytail3Nub
                                {
                                  OFFSET 3.30155 0 0
                                  CHANNELS 6 Xposition Yposition Zposition Zrotation Xrotation Yrotation
                                  End Site
                                  {
                                    OFFSET 0 0 0
                                  }
                                }
                              }
                            }
                          }
                        }
                        JOINT Bip01_Head_JawNub
                        {
                          OFFSET 15.5776 -0.000389099 0
                          CHANNELS 6 Xposition Yposition Zposition Zrotation Xrotation Yrotation
                          End Site
                          {
                            OFFSET 0 0 0
                          }
                        }
                      }
                      JOINT Bip01_Ponytail2
                      {
                        OFFSET 9.40334 1.03973 -6.51764
                        CHANNELS 6 Xposition Yposition Zposition Zrotation Xrotation Yrotation
                        JOINT Bip01_Ponytail21
                        {
                          OFFSET 2.77018 -0.00640106 1.33514e-005
                          CHANNELS 6 Xposition Yposition Zposition Zrotation Xrotation Yrotation
                          End Site
                          {
                            OFFSET 0 0 0
                          }
                        }
                      }
                      JOINT Bip01_Ponytail1
                      {
                        OFFSET 9.40368 1.03969 6.51768
                        CHANNELS 6 Xposition Yposition Zposition Zrotation Xrotation Yrotation
                        JOINT Bip01_Ponytail11
                        {
                          OFFSET 2.77018 -0.00640487 0
                          CHANNELS 6 Xposition Yposition Zposition Zrotation Xrotation Yrotation
                          End Site
                          {
                            OFFSET 0 0 0
                          }
                        }
                      }
                    }
                  }
                }
              }
            }
          }
        }
      }
    }
  }
}
MOTION
Frames:	4
Frame Time:	0.0333333
0 0 -1e-006 -0 -90 -0 -0.262124 -24.8312 50.4629 89.9992 0.0004419 89.6073 0 0 0 -89.9996 -0.000272288 -105.687 -6.23883 -3.85807 1.75213 179.607 0.13736 19.0244 10.3855 -0.007816 0.000112 16.0178 0.0285828 35.1416 10.3893 -0.005584 0.000125 46.279 0.0287375 35.1407 10.3903 -0.004207 7.59996e-005 58.9099 0.0277137 35.1411 10.3893 -0.005676 0.000358001 46.4059 -2.34296 32.2633 9e-006 -1.9e-005 -8.75617 -92.5604 -23.6802 173.654 19.7638 1e-006 3.55271e-015 -56.6133 0.00088904 0.002961 18.6534 -3e-006 6.03961e-014 -27.215 0.669939 8.15396 5.09144 13.9567 -1.16181e-006 114.82 3.09951 1.66849 4.288 -3.55271e-015 1e-006 53.6716 8.4327 1.28951 3.85799 -7.01661e-014 1e-006 -45 -3.69582e-006 1.21336e-005 -1.5e-005 1.1e-005 8.75617 -113.992 -15.529 176.289 19.7638 1e-006 1.77636e-015 -63.6034 0.000331482 0.00141347 18.6534 3e-006 5.32907e-015 -26.7631 1.56749 -5.92435 5.09143 13.9567 6.70298e-007 115 0.000722311 4.99922 4.288 1e-006 2.13163e-014 51.474 -6.02997 0.263548 3.85799 -1.62093e-012 -2e-006 -45 -4.4265e-005 -4.42705e-005 8.8075 -0.006252 -2.4735 0.523082 0.13759 5.32326 8.04366 -0.006404 8.88178e-016 0.496092 0.00612049 6.34362 8.04367 -0.006401 3.55271e-015 0.496092 0.00612049 6.34362 8.04304 -0.008323 -3.55271e-015 -3.80266 0.00512403 6.34306 10.6675 1.06848 -6e-006 -22.6055 0.0838575 0.0228826 -2.3765 -5.36597 -9.041 -157.59 -85.3329 114.849 19.0491 2.66453e-014 -3e-006 83.4137 9.15115 -96.9238 10.3706 -5.32907e-015 -2.66454e-015 -65.7369 0.00032363 0.00150417 22.8631 -7.10543e-015 -3.9968e-015 -10.6719 -1.07147 3.81138 6.48256 0.103653 0.504496 -78.3102 -0.300015 -15.4938 3.66843 -1.42109e-014 -5.32907e-015 34.6071 2.9083e-005 2.95432e-006 -2.383 -5.33963 9.05476 -157.278 85.5018 -115.163 19.0492 -1e-006 7e-006 92.4532 -4.96569 105.231 10.3706 7.10542e-015 -1.77636e-015 -62.2181 0.000434117 0.00175544 22.8631 -3e-006 3.01981e-014 -17.0017 -10.3046 -2.15449 6.48256 0.103655 -0.504496 -75.9415 0.955258 15.4679 3.66843 9.99999e-007 -3e-006 40.107 6.70689e-006 -5.33405e-006 7.5255 -0.006618 4.89998e-005 -4.85874 0.00152183 0.00165614 8.47675 -0.006359 0.000115 15.247 0.00166746 -0.000265206 8.41604 -7.10543e-015 -7.10543e-015 -79.187 8.62866 0.402021 -3e-006 3e-006 -3e-006 -23.1098 1.37701e-015 90 1.1635e-007 -0.500011 9.50623e-006 -180 90 -90 0 0 0 -113.549 1.52588e-005 -180 2.8863 13.9448 3.88993 -22.9892 1.37021e-015 90 0 0 0 -81.0377 0.0019989 180 0 0 0 -105.497 0.000352299 -0.00255817 0 0 0 116.856 1.20979 -3.26137 0 0 0 4.75203 0.0014686 0.0013405 0 0 0 -17.6591 0.00157211 0.00216025 0 0 0 -26.1943 1.10964e-005 5.27224e-006 15.5776 -0.000396 -6.99981e-006 7.95139e-016 -4.1737e-018 3.10601e-018 9.40308 1.03982 -6.51736 -19.1693 13.3625 20.4548 2.77015 -0.006393 4.99843e-006 2.43523 0.00173305 0.00166017 9.40353 1.03972 6.51745 -19.1685 -13.3599 -20.4526 2.77018 -0.006393 1.10012e-005 2.43572 0.000800669 0.000767852 
0 0 -1e-006 -0 -90 -0 -0.262124 -24.7978 50.4629 90.0008 -0.000456746 89.7609 0 0 0 -89.9997 -0.000232292 -102.561 -6.31706 -3.85807 1.40646 172.049 -0.222043 13.824 10.3855 -0.007816 0.000112 8.60207 -1.2544 26.57 10.3893 -0.005584 0.000125 38.8625 -1.25455 26.5692 10.3903 -0.004207 7.6e-005 51.494 -1.25513 26.5694 10.3893 -0.005676 0.000358 38.5248 -2.79751 24.2261 9e-006 -1.9e-005 -8.75617 -93.9223 -20.5572 173.655 19.7638 1e-006 8.88178e-015 -57.7796 0.000828579 0.00297846 18.6534 -3e-006 4.9738e-014 -27.2355 0.911265 7.99953 5.09144 13.9567 -1.07682e-006 114.82 3.09951 1.66849 4.288 7.10543e-015 1e-006 53.6716 8.4327 1.28951 3.85799 -8.43769e-014 1e-006 -45 -4.03789e-006 1.18124e-005 -1.5e-005 1.1e-005 8.75617 -113.083 -12.5934 177.532 19.7638 1e-006 -3.55271e-015 -63.6034 0.000331482 0.00141347 18.6534 3e-006 -5.32907e-015 -26.3892 1.47106 -5.819 5.09143 13.9567 6.74933e-007 115 0.000722298 4.99922 4.288 1e-006 2.13163e-014 51.474 -6.02997 0.263548 3.85799 -1.66445e-012 -2e-006 -45 -4.55206e-005 -4.54623e-005 8.91952 -0.006252 -1.98542 0.476164 0.125606 4.4282 8.04366 -0.006404 3.9968e-015 0.445255 -0.010115 4.98031 8.04367 -0.006401 -3.77476e-015 0.445255 -0.010115 4.98031 8.04304 -0.008323 -4.08562e-014 -3.79388 0.00836869 4.97973 10.6675 1.06848 -6e-006 -22.4597 0.083874 0.0227701 -2.39012 -5.35992 -9.041 -157.736 -85.3322 114.849 19.0491 1.77636e-014 -3e-006 84.6816 8.39848 -98.462 10.3706 7.10543e-015 -4.44089e-016 -65.5654 0.00032802 0.00150338 22.8631 3.55271e-015 -9.76997e-015 -11.6588 -0.934278 3.49375 6.48256 0.103653 0.504496 -78.3102 -0.300014 -15.4938 3.66843 2.22045e-015 1.77636e-015 34.6071 2.84462e-005 3.18868e-006 -2.39655 -5.3335 9.05476 -157.426 85.5019 -115.16 19.0492 -1e-006 7e-006 91.1558 -5.13394 103.74 10.3706 7.10542e-015 0 -62.7481 0.000417839 0.00175954 22.8631 -3e-006 1.42109e-014 -16.6309 -10.1609 -2.49094 6.48256 0.103655 -0.504496 -75.9415 0.955258 15.4679 3.66843 9.99999e-007 -3e-006 40.107 6.29942e-006 -5.08292e-006 7.5255 -0.006618 4.89999e-005 -4.71364 0.00152587 0.00165225 8.47675 -0.006359 0.000115 15.3925 0.00166715 -0.000269421 8.41604 -7.10543e-015 -4.44089e-015 -79.4093 6.77294 0.280123 -3e-006 3e-006 -3e-006 -23.1098 1.37701e-015 90 1.13074e-007 -0.500011 9.50566e-006 180 90 -90 0 0 0 -113.549 1.52588e-005 -180 2.8863 13.9448 3.88993 -22.9892 1.37021e-015 90 0 0 0 -82.2756 0.0019989 180 0 0 0 -109.758 0.000540847 -0.00252491 0 0 0 121.706 0.851122 -2.32578 0 0 0 2.95921 0.00141968 0.00138639 0 0 0 -19.2797 0.00151751 0.00220391 0 0 0 -26.1943 4.26792e-006 1.78665e-006 15.5776 -0.000396 -6.99981e-006 6.31414e-038 -2.32951e-018 1.55301e-018 9.40308 1.03982 -6.51736 -19.1389 14.8726 20.3886 2.77015 -0.006393 4.99842e-006 2.43523 0.00173304 0.00166017 9.40353 1.03972 6.51745 -19.1384 -14.8709 -20.3864 2.77018 -0.006393 1.10013e-005 2.43572 0.000800662 0.000767889 
0 0 -1e-006 -0 -90 -0 -0.262124 -24.764 50.4629 90.0023 -0.000429504 89.9161 0 0 0 -89.9997 -0.000164555 -99.4042 -6.39607 -3.85807 1.05733 164.348 -0.599593 8.57175 10.3855 -0.007816 0.000112 0.708981 -2.71601 17.9196 10.3893 -0.005584 0.000125 30.9685 -2.71651 17.919 10.3903 -0.004207 7.60004e-005 43.6007 -2.71653 17.919 10.3893 -0.005676 0.000358 30.4627 -3.23538 16.1036 9e-006 -1.9e-005 -8.75617 -95.2969 -17.4037 173.638 19.7638 1e-006 -3.55271e-015 -58.9575 0.000767162 0.00299484 18.6534 -3e-006 5.50671e-014 -27.2549 1.15518 7.84367 5.09144 13.9567 -9.90294e-007 114.82 3.09951 1.66849 4.288 -1.42109e-014 1e-006 53.6716 8.4327 1.28951 3.85799 -4.92939e-014 1e-006 -45 -4.38265e-006 1.14881e-005 -1.5e-005 1.1e-005 8.75617 -112.296 -9.61776 178.752 19.7638 1e-006 -1.77636e-015 -63.6034 0.000331482 0.00141347 18.6534 3e-006 1.77636e-015 -26.0112 1.37562 -5.7126 5.09143 13.9567 6.77788e-007 115 0.000722293 4.99922 4.288 1e-006 1.95399e-014 51.474 -6.02997 0.263548 3.85799 -1.73195e-012 -2e-006 -45 -4.66669e-005 -4.65576e-005 9.03266 -0.006252 -1.49245 0.428294 0.115011 3.52421 8.04366 -0.006404 5.55112e-015 0.39294 -0.0240829 3.60333 8.04367 -0.006401 4.44089e-016 0.39294 -0.0240829 3.60333 8.04304 -0.008323 -1.64313e-014 -3.78688 0.00856959 3.60277 10.6675 1.06848 -6e-006 -22.3124 0.0838911 0.0226555 -2.40388 -5.3538 -9.041 -157.882 -85.3315 114.85 19.0491 2.66453e-014 -3e-006 85.9134 7.38021 -99.9277 10.3706 -7.10543e-015 -5.32907e-015 -65.3922 0.000332435 0.00150254 22.8631 7.10543e-015 3.55271e-015 -12.6539 -0.795595 3.17299 6.48256 0.103653 0.504496 -78.3102 -0.300013 -15.4938 3.66843 -1.37668e-014 -1.77636e-015 34.6071 2.73648e-005 3.66982e-006 -2.41024 -5.32731 9.05476 -157.575 85.5019 -115.157 19.0492 -1e-006 7e-006 89.8292 -5.18639 102.247 10.3706 1.42108e-014 8.88179e-016 -63.2833 0.000401361 0.00176354 22.8631 -3e-006 1.24345e-014 -16.2548 -10.0156 -2.83047 6.48256 0.103655 -0.504496 -75.9415 0.955259 15.4679 3.66843 9.99999e-007 -3e-006 40.107 5.76878e-006 -4.73221e-006 7.5255 -0.006618 4.89999e-005 -4.56708 0.00152991 0.00164832 8.47675 -0.006359 0.000115 15.5394 0.00166721 -0.000273669 8.41604 -1.42109e-014 -2.22045e-015 -79.6418 4.89858 0.158254 -3e-006 3e-006 -3e-006 -23.1098 1.37701e-015 90 1.09696e-007 -0.500011 9.50521e-006 180 90 -90 0 0 0 -113.549 1.52588e-005 -180 2.8863 13.9448 3.88993 -22.9892 1.37021e-015 90 0 0 0 -83.5258 0.0019989 180 0 0 0 -114.062 0.000728102 -0.00247694 0 0 0 126.616 0.48815 -1.38111 0 0 0 1.14847 0.00137177 0.00143086 0 0 0 -20.9165 0.00145703 0.00224606 0 0 0 -26.1943 6.87959e-007 -5.94472e-008 15.5776 -0.000396 -6.99981e-006 -3.97569e-016 -4.36783e-018 3.10601e-018 9.40308 1.03982 -6.51736 -19.105 16.4001 20.336 2.77015 -0.006393 4.99842e-006 2.43523 0.00173303 0.00166017 9.40353 1.03972 6.51745 -19.1049 -16.3994 -20.3338 2.77018 -0.006393 1.10014e-005 2.43572 0.000800656 0.000767923 
0 0 -1e-006 -0 -90 -0 -0.262124 -24.7568 50.4629 90.0014 -3.50835e-015 90 0 0 0 -90.0001 -0.000234554 -93.568 -6.42955 -3.85807 0.401212 162.859 -0.325482 2.49169 10.3855 -0.007816 0.000112 -1.26138 -1.12553 6.04671 10.3893 -0.005584 0.000125 28.998 -1.12597 6.04549 10.3903 -0.004207 7.60014e-005 41.6304 -1.12606 6.04633 10.3893 -0.005676 0.000358 28.9996 -0.986466 4.86704 9e-006 -1.9e-005 -8.75617 -97.4968 -11.5347 174.275 19.7638 1e-006 3.55271e-015 -60.9292 0.000663624 0.00301943 18.6534 -3e-006 4.9738e-014 -27.6046 1.41752 7.6904 5.09144 13.9567 -8.19657e-007 114.82 3.09951 1.66849 4.288 -7.10543e-015 1e-006 53.6716 8.4327 1.28951 3.85799 -5.24025e-014 1e-006 -45 -5.05192e-006 1.08771e-005 -1.5e-005 1.1e-005 8.75617 -110.762 -4.11249 -179.133 19.7638 1e-006 -5.32907e-015 -63.6034 0.000331482 0.00141347 18.6534 3e-006 7.10543e-015 -25.5353 1.32124 -5.70977 5.09143 13.9567 7.09496e-007 115 0.000722197 4.99922 4.288 1e-006 2.13163e-014 51.474 -6.02997 0.263548 3.85799 -1.87317e-012 -2e-006 -45 -4.99487e-005 -4.97204e-005 9.08023 -0.006252 -0.566209 0.418147 0.101899 1.83382 8.04366 -0.006404 2.88658e-015 0.377637 -0.0417315 1.06315 8.04367 -0.006401 -1.34337e-014 0.377637 -0.0417315 1.06315 8.04304 -0.008323 -9.99201e-016 -3.7796 0.00389201 1.0626 10.6675 1.06848 -6e-006 -22.2814 0.0839041 0.0226101 -2.40678 -5.35248 -9.041 -157.912 -85.3314 114.851 19.0491 2.30926e-014 -3e-006 88.2148 6.7302 -102.63 10.3706 0 1.77636e-015 -64.6714 0.000351173 0.00149866 22.8631 3.55271e-015 -8.88179e-015 -14.0614 -0.445161 2.59837 6.48256 0.103653 0.504496 -78.3102 -0.300013 -15.4938 3.66843 8.88178e-015 -1.77636e-015 34.6071 2.6193e-005 4.21968e-006 -2.41311 -5.32604 9.05476 -157.607 85.5019 -115.156 19.0492 -1e-006 7e-006 87.6079 -6.31119 99.4084 10.3706 0 8.88179e-015 -64.0599 0.000377345 0.0017691 22.8631 -3e-006 -8.88179e-016 -15.0617 -9.77012 -3.36621 6.48256 0.103655 -0.504496 -75.9415 0.955259 15.4679 3.66843 9.99999e-007 -3e-006 40.107 5.25589e-006 -4.48119e-006 7.5255 -0.006618 4.9e-005 -4.53591 0.00153046 0.00164743 8.47675 -0.006359 0.000115 15.5703 0.00167 -0.000274476 8.41604 -2.13163e-014 -4.88498e-015 -79.6706 1.43667 -0.0111557 -3e-006 3e-006 -3e-006 -23.1098 1.37701e-015 90 1.03303e-007 -0.500011 9.50479e-006 180 90 -90 0 0 0 -113.549 1.52588e-005 -180 2.8863 13.9448 3.88993 -22.9892 1.37021e-015 90 0 0 0 -83.9654 0.00201416 180 0 0 0 -115.575 0.000784323 -0.00244054 0 0 0 128.343 0.37554 -1.0438 0 0 0 0.436603 0.00135302 0.0014479 0 0 0 -21.9669 0.0014084 0.00227068 0 0 0 -26.1943 2.11846e-006 1.25292e-006 15.5776 -0.000396 -6.99994e-006 -1.19271e-015 1.11622e-018 3.88251e-019 9.40308 1.03982 -6.51736 -19.098 16.7241 20.3227 2.77015 -0.006393 4.99848e-006 2.43523 0.00173302 0.00166019 9.40353 1.03972 6.51745 -19.098 -16.7232 -20.3205 2.77018 -0.006393 1.10015e-005 2.43572 0.000800645 0.000767953 
